<mxfile host="65bd71144e">
    <diagram id="h8iJTv6OSDUyEyxeiMuZ" name="Page-1">
        <mxGraphModel dx="809" dy="1259" grid="1" gridSize="10" guides="1" tooltips="1" connect="1" arrows="1" fold="1" page="1" pageScale="1" pageWidth="1100" pageHeight="850" math="0" shadow="0">
            <root>
                <mxCell id="0"/>
                <mxCell id="1" parent="0"/>
                <mxCell id="2" value="" style="rounded=1;whiteSpace=wrap;html=1;" vertex="1" parent="1">
                    <mxGeometry x="40" y="-425" width="690" height="860" as="geometry"/>
                </mxCell>
                <mxCell id="3" value="data" style="shape=datastore;whiteSpace=wrap;html=1;" vertex="1" parent="1">
                    <mxGeometry x="90" y="-260" width="60" height="60" as="geometry"/>
                </mxCell>
                <mxCell id="4" value="Server" style="rhombus;whiteSpace=wrap;html=1;" vertex="1" parent="1">
                    <mxGeometry x="190" y="-250" width="120" height="50" as="geometry"/>
                </mxCell>
                <mxCell id="6" value="CSV format" style="rounded=0;whiteSpace=wrap;html=1;" vertex="1" parent="1">
                    <mxGeometry x="350" y="-245" width="120" height="40" as="geometry"/>
                </mxCell>
                <mxCell id="7" value="Data pre-processing" style="rounded=1;whiteSpace=wrap;html=1;" vertex="1" parent="1">
                    <mxGeometry x="530" y="-245" width="110" height="45" as="geometry"/>
                </mxCell>
                <mxCell id="8" value="classification" style="rounded=0;whiteSpace=wrap;html=1;" vertex="1" parent="1">
                    <mxGeometry x="210" y="-140" width="120" height="30" as="geometry"/>
                </mxCell>
                <mxCell id="9" value="test" style="rounded=0;whiteSpace=wrap;html=1;" vertex="1" parent="1">
                    <mxGeometry x="535" y="-145" width="105" height="35" as="geometry"/>
                </mxCell>
                <mxCell id="10" value="&amp;nbsp;Final data" style="shape=datastore;whiteSpace=wrap;html=1;" vertex="1" parent="1">
                    <mxGeometry x="235" y="-50" width="70" height="60" as="geometry"/>
                </mxCell>
                <mxCell id="11" value="Epert data" style="shape=datastore;whiteSpace=wrap;html=1;" vertex="1" parent="1">
                    <mxGeometry x="80" y="-160" width="70" height="60" as="geometry"/>
                </mxCell>
                <mxCell id="12" value="update" style="rounded=1;whiteSpace=wrap;html=1;" vertex="1" parent="1">
                    <mxGeometry x="80" y="-40" width="90" height="40" as="geometry"/>
                </mxCell>
                <mxCell id="14" value="training" style="rounded=0;whiteSpace=wrap;html=1;" vertex="1" parent="1">
                    <mxGeometry x="360" y="-40" width="120" height="40" as="geometry"/>
                </mxCell>
                <mxCell id="16" value="Continuous Improvement" style="ellipse;whiteSpace=wrap;html=1;" vertex="1" parent="1">
                    <mxGeometry x="527.5" y="-40" width="120" height="50" as="geometry"/>
                </mxCell>
                <mxCell id="18" value="" style="endArrow=classic;html=1;entryX=0;entryY=0.5;entryDx=0;entryDy=0;" edge="1" parent="1" target="4">
                    <mxGeometry width="50" height="50" relative="1" as="geometry">
                        <mxPoint x="150" y="-225" as="sourcePoint"/>
                        <mxPoint x="200" y="-280" as="targetPoint"/>
                    </mxGeometry>
                </mxCell>
                <mxCell id="19" value="" style="endArrow=classic;html=1;exitX=1;exitY=0.5;exitDx=0;exitDy=0;" edge="1" parent="1" source="4">
                    <mxGeometry width="50" height="50" relative="1" as="geometry">
                        <mxPoint x="410" y="-140" as="sourcePoint"/>
                        <mxPoint x="350" y="-225" as="targetPoint"/>
                    </mxGeometry>
                </mxCell>
                <mxCell id="20" value="" style="endArrow=classic;html=1;exitX=1;exitY=0.5;exitDx=0;exitDy=0;entryX=0;entryY=0.5;entryDx=0;entryDy=0;" edge="1" parent="1" source="6" target="7">
                    <mxGeometry width="50" height="50" relative="1" as="geometry">
                        <mxPoint x="410" y="-140" as="sourcePoint"/>
                        <mxPoint x="460" y="-190" as="targetPoint"/>
                    </mxGeometry>
                </mxCell>
                <mxCell id="21" value="" style="endArrow=classic;html=1;entryX=0.5;entryY=0;entryDx=0;entryDy=0;" edge="1" parent="1" target="9">
                    <mxGeometry width="50" height="50" relative="1" as="geometry">
                        <mxPoint x="588" y="-200" as="sourcePoint"/>
                        <mxPoint x="460" y="-190" as="targetPoint"/>
                    </mxGeometry>
                </mxCell>
                <mxCell id="22" value="" style="endArrow=classic;html=1;exitX=0;exitY=0.5;exitDx=0;exitDy=0;entryX=1;entryY=0.5;entryDx=0;entryDy=0;" edge="1" parent="1" source="9" target="8">
                    <mxGeometry width="50" height="50" relative="1" as="geometry">
                        <mxPoint x="410" y="-140" as="sourcePoint"/>
                        <mxPoint x="460" y="-190" as="targetPoint"/>
                    </mxGeometry>
                </mxCell>
                <mxCell id="23" value="negative" style="endArrow=classic;html=1;exitX=0;exitY=0.5;exitDx=0;exitDy=0;" edge="1" parent="1" source="8">
                    <mxGeometry width="50" height="50" relative="1" as="geometry">
                        <mxPoint x="410" y="-140" as="sourcePoint"/>
                        <mxPoint x="150" y="-125" as="targetPoint"/>
                    </mxGeometry>
                </mxCell>
                <mxCell id="24" value="" style="endArrow=classic;html=1;entryX=0.422;entryY=-0.067;entryDx=0;entryDy=0;entryPerimeter=0;" edge="1" parent="1" target="12">
                    <mxGeometry width="50" height="50" relative="1" as="geometry">
                        <mxPoint x="118" y="-100" as="sourcePoint"/>
                        <mxPoint x="460" y="-190" as="targetPoint"/>
                    </mxGeometry>
                </mxCell>
                <mxCell id="25" value="" style="endArrow=classic;html=1;exitX=1;exitY=0.5;exitDx=0;exitDy=0;entryX=0;entryY=0.5;entryDx=0;entryDy=0;" edge="1" parent="1" source="12" target="10">
                    <mxGeometry width="50" height="50" relative="1" as="geometry">
                        <mxPoint x="410" y="-140" as="sourcePoint"/>
                        <mxPoint x="460" y="-190" as="targetPoint"/>
                    </mxGeometry>
                </mxCell>
                <mxCell id="26" value="Positive" style="endArrow=classic;html=1;entryX=0.5;entryY=0;entryDx=0;entryDy=0;exitX=0.5;exitY=1;exitDx=0;exitDy=0;" edge="1" parent="1" source="8" target="10">
                    <mxGeometry width="50" height="50" relative="1" as="geometry">
                        <mxPoint x="270" y="-60" as="sourcePoint"/>
                        <mxPoint x="320" y="-110" as="targetPoint"/>
                    </mxGeometry>
                </mxCell>
                <mxCell id="28" value="" style="endArrow=classic;html=1;entryX=0;entryY=0.5;entryDx=0;entryDy=0;" edge="1" parent="1" target="14">
                    <mxGeometry width="50" height="50" relative="1" as="geometry">
                        <mxPoint x="310" y="-20" as="sourcePoint"/>
                        <mxPoint x="350" y="-60" as="targetPoint"/>
                    </mxGeometry>
                </mxCell>
                <mxCell id="29" value="" style="endArrow=classic;html=1;entryX=0;entryY=0.5;entryDx=0;entryDy=0;" edge="1" parent="1" target="16">
                    <mxGeometry width="50" height="50" relative="1" as="geometry">
                        <mxPoint x="480" y="-15" as="sourcePoint"/>
                        <mxPoint x="460" y="-190" as="targetPoint"/>
                    </mxGeometry>
                </mxCell>
            </root>
        </mxGraphModel>
    </diagram>
</mxfile>